<svg width="22" height="22" viewBox="0 0 22 22" fill="none" xmlns="http://www.w3.org/2000/svg">
<g clip-path="url(#clip0_1783_639)">
<path fill-rule="evenodd" clip-rule="evenodd" d="M21.4289 1.88255C21.588 2.01399 21.7197 2.17549 21.8164 2.35782C21.9131 2.54016 21.973 2.73976 21.9925 2.94522C22.0121 3.15068 21.9909 3.35798 21.9304 3.55529C21.8698 3.75259 21.771 3.93603 21.6395 4.09512L9.0052 19.3851L9.00049 19.3883C8.71329 19.7336 8.35268 20.0106 7.94491 20.199C7.53715 20.3874 7.09249 20.4824 6.64334 20.4773C6.18747 20.4717 5.73877 20.3631 5.33083 20.1595C4.9229 19.956 4.56631 19.6628 4.28777 19.3018L4.2862 19.2987L0.329344 14.2136C0.197223 14.0513 0.0988479 13.8642 0.0399919 13.6634C-0.0188642 13.4626 -0.0370156 13.252 -0.0133972 13.0441C0.0102213 12.8362 0.0751337 12.635 0.177531 12.4525C0.279928 12.27 0.417747 12.1098 0.582901 11.9813C0.748054 11.8528 0.937215 11.7585 1.13928 11.7041C1.34135 11.6497 1.55225 11.6361 1.75962 11.6643C1.96698 11.6925 2.16663 11.7618 2.34684 11.8682C2.52705 11.9746 2.6842 12.1159 2.80906 12.2838L6.68106 17.2606L19.2148 2.09312C19.3462 1.934 19.5077 1.80232 19.69 1.70562C19.8724 1.60892 20.072 1.54908 20.2774 1.52953C20.4829 1.50998 20.6902 1.53109 20.8875 1.59166C21.0848 1.65223 21.2682 1.75108 21.4273 1.88255H21.4289Z" fill="white"/>
</g>
<defs>
<clipPath id="clip0_1783_639">
<path d="M0 11C0 4.92487 4.92487 0 11 0C17.0751 0 22 4.92487 22 11C22 17.0751 17.0751 22 11 22C4.92487 22 0 17.0751 0 11Z" fill="white"/>
</clipPath>
</defs>
</svg>
